<svg xmlns="http://www.w3.org/2000/svg" xmlns:xlink="http://www.w3.org/1999/xlink" width="850" zoomAndPan="magnify" viewBox="0 0 637.5 337.499995" height="450" preserveAspectRatio="xMidYMid meet" version="1.0"><defs><clipPath id="1733cc1938"><path d="M 0.222656 0 L 636.777344 0 L 636.777344 337 L 0.222656 337 Z M 0.222656 0 " clip-rule="nonzero"/></clipPath><clipPath id="fbd61fb6a4"><path d="M 101.972656 74.328125 L 161.136719 74.328125 L 161.136719 133.488281 L 101.972656 133.488281 Z M 101.972656 74.328125 " clip-rule="nonzero"/></clipPath><clipPath id="2bc9dc7248"><path d="M 230.929688 191.882812 L 342.515625 191.882812 L 342.515625 303.46875 L 230.929688 303.46875 Z M 230.929688 191.882812 " clip-rule="nonzero"/></clipPath><clipPath id="ece8e820ed"><path d="M 439.789062 26.785156 L 581.328125 26.785156 L 581.328125 168.328125 L 439.789062 168.328125 Z M 439.789062 26.785156 " clip-rule="nonzero"/></clipPath></defs><g clip-path="url(#1733cc1938)"><path fill="#ffffff" d="M 0.222656 0 L 636.777344 0 L 636.777344 337 L 0.222656 337 Z M 0.222656 0 " fill-opacity="1" fill-rule="nonzero"/><path fill="#163172" d="M 0.222656 0 L 636.777344 0 L 636.777344 337 L 0.222656 337 Z M 0.222656 0 " fill-opacity="1" fill-rule="nonzero"/></g><g clip-path="url(#fbd61fb6a4)"><path fill="#0b1659" d="M 161.042969 126.832031 C 161.042969 130.457031 158.101562 133.394531 154.480469 133.394531 L 108.535156 133.394531 C 104.910156 133.394531 101.972656 130.457031 101.972656 126.832031 L 101.972656 80.890625 C 101.972656 77.265625 104.910156 74.328125 108.535156 74.328125 L 154.480469 74.328125 C 158.101562 74.328125 161.042969 77.265625 161.042969 80.890625 Z M 161.042969 126.832031 " fill-opacity="1" fill-rule="nonzero"/></g><g clip-path="url(#2bc9dc7248)"><path fill="#0b1659" d="M 342.339844 290.914062 C 342.339844 297.75 336.796875 303.292969 329.960938 303.292969 L 243.308594 303.292969 C 236.472656 303.292969 230.929688 297.75 230.929688 290.914062 L 230.929688 204.261719 C 230.929688 197.425781 236.472656 191.882812 243.308594 191.882812 L 329.960938 191.882812 C 336.796875 191.882812 342.339844 197.425781 342.339844 204.261719 Z M 342.339844 290.914062 " fill-opacity="1" fill-rule="nonzero"/></g><g clip-path="url(#ece8e820ed)"><path fill="#0b1659" d="M 581.492188 152.746094 C 581.492188 161.441406 574.441406 168.492188 565.746094 168.492188 L 455.53125 168.492188 C 446.835938 168.492188 439.789062 161.441406 439.789062 152.746094 L 439.789062 42.53125 C 439.789062 33.835938 446.835938 26.785156 455.53125 26.785156 L 565.746094 26.785156 C 574.441406 26.785156 581.492188 33.835938 581.492188 42.53125 Z M 581.492188 152.746094 " fill-opacity="1" fill-rule="nonzero"/></g></svg>