<svg xmlns="http://www.w3.org/2000/svg" xmlns:xlink="http://www.w3.org/1999/xlink" width="1000" zoomAndPan="magnify" viewBox="0 0 750 749.999995" height="1000" preserveAspectRatio="xMidYMid meet" version="1.0"><defs><clipPath id="c556ec7b5d"><path d="M 601.449219 203.902344 L 713.949219 203.902344 L 713.949219 316.402344 L 601.449219 316.402344 Z M 601.449219 203.902344 " clip-rule="nonzero"/></clipPath><clipPath id="92e540e5f0"><path d="M 356.882812 320.011719 L 544.382812 320.011719 L 544.382812 507.511719 L 356.882812 507.511719 Z M 356.882812 320.011719 " clip-rule="nonzero"/></clipPath><clipPath id="f49d2017d8"><path d="M 351.828125 118.863281 L 464.328125 118.863281 L 464.328125 231.363281 L 351.828125 231.363281 Z M 351.828125 118.863281 " clip-rule="nonzero"/></clipPath><clipPath id="2e7965e22c"><path d="M 259.222656 515.84375 L 336.472656 515.84375 L 336.472656 593.09375 L 259.222656 593.09375 Z M 259.222656 515.84375 " clip-rule="nonzero"/></clipPath></defs><rect x="-75" width="900" fill="#ffffff" y="-74.999999" height="899.999994" fill-opacity="1"/><rect x="-75" width="900" fill="#ffffff" y="-74.999999" height="899.999994" fill-opacity="1"/><path fill="#308be0" d="M 778.496094 688.632812 C 778.496094 738.257812 738.257812 778.496094 688.632812 778.496094 L 59.578125 778.496094 C 9.953125 778.496094 -30.285156 738.257812 -30.285156 688.632812 L -30.285156 59.578125 C -30.285156 9.953125 9.953125 -30.285156 59.578125 -30.285156 L 688.632812 -30.285156 C 738.257812 -30.285156 778.496094 9.953125 778.496094 59.578125 Z M 778.496094 688.632812 " fill-opacity="1" fill-rule="nonzero"/><g clip-path="url(#c556ec7b5d)"><path fill="#164273" d="M 713.703125 303.683594 C 713.703125 310.570312 708.117188 316.15625 701.230469 316.15625 L 613.921875 316.15625 C 607.03125 316.15625 601.449219 310.570312 601.449219 303.683594 L 601.449219 216.375 C 601.449219 209.488281 607.03125 203.902344 613.921875 203.902344 L 701.230469 203.902344 C 708.117188 203.902344 713.703125 209.488281 713.703125 216.375 Z M 713.703125 303.683594 " fill-opacity="1" fill-rule="nonzero"/></g><g clip-path="url(#92e540e5f0)"><path fill="#164273" d="M 544.652344 486.917969 C 544.652344 498.4375 535.308594 507.78125 523.789062 507.78125 L 377.746094 507.78125 C 366.222656 507.78125 356.882812 498.4375 356.882812 486.917969 L 356.882812 340.875 C 356.882812 329.351562 366.222656 320.011719 377.746094 320.011719 L 523.789062 320.011719 C 535.308594 320.011719 544.652344 329.351562 544.652344 340.875 Z M 544.652344 486.917969 " fill-opacity="1" fill-rule="nonzero"/></g><g clip-path="url(#f49d2017d8)"><path fill="#164273" d="M 464.082031 218.644531 C 464.082031 225.535156 458.496094 231.117188 451.609375 231.117188 L 364.300781 231.117188 C 357.410156 231.117188 351.828125 225.535156 351.828125 218.644531 L 351.828125 131.335938 C 351.828125 124.449219 357.410156 118.863281 364.300781 118.863281 L 451.609375 118.863281 C 458.496094 118.863281 464.082031 124.449219 464.082031 131.335938 Z M 464.082031 218.644531 " fill-opacity="1" fill-rule="nonzero"/></g><g clip-path="url(#2e7965e22c)"><path fill="#164273" d="M 336.507812 584.542969 C 336.507812 589.285156 332.664062 593.128906 327.921875 593.128906 L 267.8125 593.128906 C 263.070312 593.128906 259.222656 589.285156 259.222656 584.542969 L 259.222656 524.429688 C 259.222656 519.6875 263.070312 515.84375 267.8125 515.84375 L 327.921875 515.84375 C 332.664062 515.84375 336.507812 519.6875 336.507812 524.429688 Z M 336.507812 584.542969 " fill-opacity="1" fill-rule="nonzero"/></g></svg>